<?xml version="1.0" encoding="UTF-8" standalone="no"?>
<!-- Created with Inkscape (http://www.inkscape.org/) -->

<svg
   width="13.992274mm"
   height="15.225831mm"
   viewBox="0 0 13.992274 15.225831"
   version="1.1"
   id="svg1"
   xml:space="preserve"
   inkscape:version="1.3.2 (091e20ef0f, 2023-11-25)"
   sodipodi:docname="rps_logo.svg"
   inkscape:export-filename="rps_logo.png"
   inkscape:export-xdpi="500.4653"
   inkscape:export-ydpi="500.4653"
   xmlns:inkscape="http://www.inkscape.org/namespaces/inkscape"
   xmlns:sodipodi="http://sodipodi.sourceforge.net/DTD/sodipodi-0.dtd"
   xmlns="http://www.w3.org/2000/svg"
   xmlns:svg="http://www.w3.org/2000/svg"><sodipodi:namedview
     id="namedview1"
     pagecolor="#ffffff"
     bordercolor="#000000"
     borderopacity="0.25"
     inkscape:showpageshadow="2"
     inkscape:pageopacity="0.0"
     inkscape:pagecheckerboard="0"
     inkscape:deskcolor="#d1d1d1"
     inkscape:document-units="mm"
     inkscape:zoom="6.5592536"
     inkscape:cx="396.61525"
     inkscape:cy="587.03326"
     inkscape:window-width="1920"
     inkscape:window-height="1011"
     inkscape:window-x="0"
     inkscape:window-y="0"
     inkscape:window-maximized="1"
     inkscape:current-layer="layer1" /><defs
     id="defs1" /><g
     inkscape:label="Layer 1"
     inkscape:groupmode="layer"
     id="layer1"
     transform="translate(-97.820849,-143.7375)"><g
       id="g1"
       transform="matrix(0.26458333,0,0,0.26458333,97.027098,143.7375)"><path
         fill="#e1e8ed"
         d="m 32.415,9.586 -9,-9 C 23.054,0.225 22.553,0 22,0 c -1.104,0 -1.999,0.896 -2,2 0,0.552 0.224,1.053 0.586,1.415 l -3.859,3.859 9,9 3.859,-3.859 C 29.948,12.776 30.448,13 31,13 c 1.104,0 2.001,-0.896 2,-2 0,-0.552 -0.224,-1.052 -0.585,-1.414 z"
         id="path1" /><path
         fill="#ccd6dd"
         d="M 22,0 H 7 C 4.791,0 3,1.791 3,4 v 28 c 0,2.209 1.791,4 4,4 h 22 c 2.209,0 4,-1.791 4,-4 V 11 h -9 c -1,0 -2,-1 -2,-2 z"
         id="path2" /><path
         fill="#99aab5"
         d="m 22,0 h -2 v 9 c 0,2.209 1.791,4 4,4 h 9 v -2 h -9 c -1,0 -2,-1 -2,-2 z m -5,8 c 0,0.552 -0.448,1 -1,1 H 8 C 7.448,9 7,8.552 7,8 7,7.448 7.448,7 8,7 h 8 c 0.552,0 1,0.448 1,1 z m 0,4 c 0,0.552 -0.448,1 -1,1 H 8 C 7.448,13 7,12.552 7,12 7,11.448 7.448,11 8,11 h 8 c 0.552,0 1,0.448 1,1 z m 12,4 c 0,0.552 -0.447,1 -1,1 H 8 C 7.448,17 7,16.552 7,16 7,15.448 7.448,15 8,15 h 20 c 0.553,0 1,0.448 1,1 z m 0,4 c 0,0.553 -0.447,1 -1,1 H 8 C 7.448,21 7,20.553 7,20 7,19.447 7.448,19 8,19 h 20 c 0.553,0 1,0.447 1,1 z m 0,4 c 0,0.553 -0.447,1 -1,1 H 8 C 7.448,25 7,24.553 7,24 7,23.447 7.448,23 8,23 h 20 c 0.553,0 1,0.447 1,1 z m 0,4 c 0,0.553 -0.447,1 -1,1 H 8 C 7.448,29 7,28.553 7,28 7,27.447 7.448,27 8,27 h 20 c 0.553,0 1,0.447 1,1 z"
         id="path3" /></g><g
       id="g2"
       transform="matrix(0.26458333,0,0,0.26458333,100.1799,149.77653)"><path
         fill="#66757f"
         d="m 12,4.157 c 0,0 4,-1.075 5,-1.075 1,0 5,1.075 5,1.075 0,0 4,4.298 5,4.298 0,0 2,0 4,2.149 2,2.149 2,6.447 2,6.447 0,0 2,4.298 2,6.447 0,2.149 -1,4.298 -2,5.373 -1,1.075 -5,2.149 -5,2.149 0,0 -1,2.149 -3,3.224 -6,1.075 -10,0 -10,0 l -2,-2.149 c 0,0 -7,-1.075 -8,-1.075 -1,0 -4,-4.298 -4,-5.373 0,-1.075 0,-4.298 1,-7.522 2,-3.224 3,-4.298 3,-4.298 0,0 -1,-2.148 0,-4.297 2,-2.149 6,-3.224 6,-3.224 z"
         id="path1-5" /><path
         fill="#99aab5"
         d="m 12.409,4.49 c 0,0 3.633,-1.021 4.574,-1.021 0.941,0 4.99,1.149 4.99,1.149 0,0 3.574,4.022 4.515,4.022 0,0 2.038,-0.045 3.921,1.979 1.883,2.024 1.708,5.617 1.708,5.617 0,0 1.883,4.046 1.883,6.069 0,2.023 -0.941,4.047 -1.882,5.059 -0.941,1.012 -4.706,2.023 -4.706,2.023 0,0 -0.941,2.023 -2.824,3.035 -5.647,1.012 -9.412,0 -9.412,0 l -1.882,-2.023 c 0,0 -6.588,-1.012 -7.529,-1.012 C 4.824,29.387 2,25.34 2,24.328 2,23.316 2,20.281 2.941,17.246 4.824,14.211 5.765,13.2 5.765,13.2 5.765,13.2 4.577,11.557 5.518,9.533 7.4,7.51 11.399,6.469 11.399,6.469 Z"
         id="path2-3" /><path
         fill="#ccd6dd"
         d="m 12.771,5.312 c 0,0 3.398,-0.892 4.278,-0.892 0.88,0 4.667,1.003 4.667,1.003 0,0 3.342,3.511 4.222,3.511 0,0 1.906,-0.039 3.667,1.727 1.76,1.766 1.598,4.903 1.598,4.903 0,0 0.275,4.245 0.988,4.373 1.81,0.324 0.167,3.713 -0.713,4.596 -0.88,0.883 -7.01,1.277 -7.01,1.277 0,0 0.216,2.755 -1.545,3.639 -5.281,0.883 -7.565,0.246 -7.565,0.246 l -1.76,-1.766 c 0,0 -4.29,-4.097 -5.17,-4.097 -0.88,0 -5.393,-0.319 -5.393,-1.202 0,-0.883 0,-3.533 0.88,-6.182 1.76,-2.649 2.641,-3.533 2.641,-3.533 0,0 -1.111,-1.435 -0.231,-3.201 1.76,-1.766 5.5,-2.675 5.5,-2.675 z"
         id="path3-5" /><path
         fill="#99aab5"
         d="m 6.29,12.597 3.981,1.851 -2.08,1.468 -4.274,0.532 z"
         id="path4" /><path
         fill="#66757f"
         d="m 1.597,21.981 c 0,0 1.129,3.766 1.426,4.213 0.297,0.447 4.099,0.128 4.574,0.128 0.475,0 2.792,1.213 2.792,1.213 0,0 -3.089,0.83 -4.158,0.702 C 5.162,28.109 2.383,27.61 2.132,26.896 1.881,26.182 1.597,21.981 1.597,21.981 Z"
         id="path5" /><path
         fill="#e1e8ed"
         d="m 7.3,9.597 c 0.49,-0.155 3.861,-1.596 4.574,-1.532 0.713,0.064 3.743,1.787 3.03,2.362 -0.713,0.575 -4.634,0.128 -5.762,0.128 C 8.014,10.555 6.29,9.916 7.3,9.597 Z m -2.376,7.724 c 0.303,-0.571 4.337,-0.766 4.337,-0.766 0,0 5.228,2.107 5.228,2.426 0,0.319 -4.752,2.49 -5.228,2.553 -0.476,0.063 -4.575,-3.766 -4.337,-4.213 z m 11.703,3.894 c -0.094,-0.505 2.02,-3.575 2.436,-3.83 0.416,-0.255 6,-1.724 6.95,-1.724 0.95,0 3.98,2.234 4.04,2.681 0.059,0.447 -2.673,3.511 -3.386,3.766 -0.713,0.256 -9.862,0.064 -10.04,-0.893 z m 5.347,-8.427 c -0.225,0.537 5.347,1.277 5.941,1.021 0.594,-0.255 1.663,-1.979 1.485,-2.426 -0.178,-0.447 -1.901,-1.724 -2.792,-1.596 -0.892,0.129 -4.1,1.725 -4.634,3.001 z M 17.578,4.937 c 0.498,0.107 3.802,0.894 4.218,1.532 0.416,0.638 -1.96,2.617 -2.614,2.681 -0.653,0.064 -5.109,-2.681 -5.584,-3 -0.475,-0.319 3.088,-1.405 3.98,-1.213 z"
         id="path6" /><path
         fill="#66757f"
         d="m 13.063,31.364 c -0.416,-0.638 0.238,-2.745 0.594,-2.49 0.356,0.255 1.426,1.021 1.485,1.66 0.059,0.638 1.129,1.851 1.901,2.234 0.772,0.383 4.99,0.383 5.703,0.128 0.713,-0.255 2.376,-1.66 2.792,-2.49 0.416,-0.83 0.896,-0.891 1.874,-1.02 0.978,-0.129 1.922,0.844 0.588,1.634 -1.333,0.79 -2.759,2.195 -4.422,2.514 -1.663,0.319 -7.069,0.575 -8.02,0.192 -0.951,-0.383 -2.495,-2.362 -2.495,-2.362 z"
         id="path7" /><path
         fill="#99aab5"
         d="m 20.2,26.754 c -0.501,-0.269 -0.688,-2.495 -0.43,-2.68 0.258,-0.185 2.666,0.185 3.225,0.277 0.559,0.092 3.956,-0.185 4.3,0.185 0.344,0.37 1.173,1.726 1.462,2.541 0.289,0.816 -1.591,0.693 -2.322,0.508 C 25.704,27.4 20.888,27.124 20.2,26.754 Z M 12.587,12.022 c 0.653,0 3.386,-0.064 3.98,0 0.594,0.064 2.495,1.851 1.604,2.043 -0.891,0.192 -3.267,0.83 -3.624,0.894 -0.357,0.064 -1.663,-1.149 -2.079,-1.468 -0.415,-0.32 -0.593,-1.469 0.119,-1.469 z m 7.486,-1.787 c 0.33,-0.531 1.604,-0.702 1.663,-0.128 0.059,0.575 -0.297,1.851 -1.01,1.787 -0.713,-0.063 -1.129,-0.893 -0.653,-1.659 z m -3.446,13.469 c 0.593,-0.071 1.723,-0.192 1.723,0.319 0,0.511 -0.713,0.702 -1.545,0.638 -0.831,-0.063 -0.713,-0.893 -0.178,-0.957 z"
         id="path8" /><path
         fill="#e1e8ed"
         d="m 14.31,16.619 c 0.519,-0.446 2.317,-0.511 2.733,-0.319 0.416,0.192 -0.475,1.532 -1.01,1.596 -0.535,0.063 -2.317,-0.767 -1.723,-1.277 z"
         id="path9" /><path
         fill="#66757f"
         d="m 26.191,26.385 c 0.593,-0.159 2.02,-0.319 1.96,0.128 -0.059,0.447 -0.653,1.277 -1.129,1.213 -0.476,-0.064 -1.306,-1.213 -0.831,-1.341 z m -3.861,4.469 c 0.656,-0.109 1.663,-0.638 1.604,0 -0.059,0.638 -0.772,1.468 -1.545,1.341 -0.772,-0.128 -0.831,-1.214 -0.059,-1.341 z"
         id="path10" /></g><g
       id="g3"
       transform="matrix(0.26458333,0,0,0.26458333,102.82583,143.79738)"><path
         fill="#dd2e44"
         d="M 16.806,10.675 C 15.886,8.628 14.803,6.609 13.78,4.415 13.752,4.347 13.729,4.277 13.698,4.209 13.634,4.067 13.561,3.932 13.49,3.796 L 13.438,3.685 13.436,3.688 C 11.798,0.698 8.343,-0.674 5.46,0.621 2.414,1.988 1.164,5.813 2.67,9.163 c 1.505,3.351 5.194,4.957 8.24,3.589 0.106,-0.047 0.205,-0.105 0.306,-0.159 1.935,0.438 1.994,1.877 1.994,1.877 0,0 4.618,-1.521 3.596,-3.795 z M 4.876,8.173 C 3.918,6.04 4.624,3.646 6.451,2.826 8.277,2.004 10.535,3.068 11.493,5.2 12.451,7.332 11.746,9.726 9.92,10.546 8.092,11.367 5.833,10.305 4.876,8.173 Z"
         id="path1-6" /><path
         fill="#99aab5"
         d="m 26.978,34.868 c 1.163,-0.657 2.187,-2.474 1.529,-3.638 L 16.754,10.559 c -1.103,0.496 -2.938,2.313 -3.544,3.912 z"
         id="path2-2" /><path
         fill="#dd2e44"
         d="M 30.54,0.62 C 27.658,-0.675 24.202,0.697 22.564,3.687 L 22.561,3.684 22.508,3.796 c -0.071,0.135 -0.145,0.27 -0.208,0.412 -0.03,0.068 -0.053,0.137 -0.081,0.206 -1.023,2.194 -2.107,4.213 -3.026,6.26 -1.021,2.274 3.597,3.796 3.597,3.796 0,0 0.059,-1.439 1.993,-1.877 0.102,0.054 0.2,0.111 0.307,0.159 3.045,1.368 6.733,-0.238 8.24,-3.589 1.505,-3.35 0.255,-7.175 -2.79,-8.543 z m 0.584,7.553 c -0.959,2.132 -3.216,3.194 -5.044,2.373 -1.826,-0.82 -2.531,-3.214 -1.572,-5.346 0.956,-2.132 3.214,-3.195 5.041,-2.374 1.827,0.82 2.532,3.214 1.575,5.347 z"
         id="path3-9" /><path
         fill="#ccd6dd"
         d="M 9.022,34.868 C 7.859,34.211 6.835,32.394 7.493,31.23 L 19.246,10.559 c 1.103,0.496 2.938,2.313 3.544,3.912 z"
         id="path4-1" /><path
         fill="#99aab5"
         d="m 19.562,17.396 c 0,0.863 -0.701,1.562 -1.562,1.562 -0.863,0 -1.562,-0.699 -1.562,-1.562 0,-0.863 0.699,-1.562 1.562,-1.562 0.862,0 1.562,0.699 1.562,1.562 z"
         id="path5-2" /></g></g></svg>
